<svg width="287" height="287" fill="none" xmlns="http://www.w3.org/2000/svg">
  <path d="M202.441 91.675c16.295 19.648 25.559 42.908 28.759 69.399 3.242 26.45.463 56.133-15.832 66.629-16.296 10.496-46.066 1.805-72.509-1.511-26.444-3.317-49.561-1.26-64.51-11.756-14.947-10.496-21.727-33.545-23.369-58.232-1.642-24.686 1.853-51.01 16.801-70.659 14.948-19.69 41.35-32.663 66.193-31.152 24.886 1.554 48.213 17.633 64.467 37.282Z" stroke="#000" stroke-opacity=".8" stroke-width="4"/>
  <path d="M213.868 81.729c19.455 23.419 30.515 51.142 34.335 82.718 3.871 31.527.553 66.906-18.902 79.416-19.455 12.511-54.997 2.152-86.567-1.801-31.57-3.954-59.17-1.502-77.015-14.012-17.847-12.51-25.94-39.983-27.9-69.407-1.962-29.425 2.211-60.8 20.057-84.22 17.847-23.47 49.367-38.933 79.027-37.131 29.71 1.852 57.56 21.017 76.965 44.437Z" stroke="#000" stroke-opacity=".6" stroke-width="4"/>
  <path d="M224.092 72.83c22.282 26.793 34.949 58.51 39.325 94.635 4.433 36.068.633 76.545-21.649 90.857-22.282 14.313-62.988 2.462-99.145-2.061-36.158-4.523-67.767-1.717-88.206-16.03-20.44-14.313-29.709-45.743-31.954-79.407-2.246-33.663 2.533-69.56 22.972-96.353 20.44-26.85 56.54-44.541 90.509-42.48 34.027 2.118 65.924 24.045 88.148 50.839Z" stroke="#000" stroke-opacity=".4" stroke-width="4"/>
  <path d="M237.324 61.313c25.94 31.16 40.686 68.045 45.78 110.058 5.161 41.945.738 89.018-25.202 105.663-25.94 16.645-73.329 2.863-115.423-2.397-42.094-5.26-78.893-1.997-102.688-18.642-23.795-16.646-34.586-53.198-37.2-92.348C-.023 124.498 5.54 82.752 29.335 51.592 53.13 20.366 95.157-.208 134.704 2.19c39.613 2.464 76.747 27.964 102.62 59.124Z" stroke="#000" stroke-opacity=".2" stroke-width="4"/>
</svg>
