<svg width="311" height="311" viewBox="0 0 311 311" fill="none" stroke="currentColor" xmlns="http://www.w3.org/2000/svg">
<g id="blob">
<path id="layer-01" d="M219.439 99.28C237.117 120.595 247.166 145.826 250.637 174.565C254.155 203.258 251.14 235.458 233.462 246.844C215.785 258.23 183.49 248.802 154.804 245.204C126.118 241.606 101.04 243.838 84.8246 232.452C68.6087 221.066 61.2545 196.062 59.473 169.282C57.6916 142.502 61.4829 113.945 77.6987 92.6305C93.9146 71.2702 122.555 57.1969 149.505 58.8365C176.501 60.5217 201.807 77.9652 219.439 99.28Z" stroke-opacity="0.8" stroke-width="4"/>
<path id="layer-02" d="M231.836 88.4903C252.94 113.896 264.938 143.97 269.083 178.224C273.282 212.424 269.683 250.803 248.578 264.375C227.473 277.946 188.917 266.709 154.669 262.42C120.422 258.132 90.4822 260.792 71.1224 247.22C51.7627 233.649 42.9826 203.847 40.8558 171.927C38.7289 140.007 43.2553 105.97 62.615 80.5647C81.9748 55.1049 116.168 38.3307 148.343 40.285C180.573 42.2935 210.785 63.0848 231.836 88.4903Z" stroke-opacity="0.6" stroke-width="4"/>
<path id="layer-03" d="M242.927 78.8363C267.098 107.902 280.839 142.309 285.586 181.498C290.395 220.624 286.273 264.533 262.102 280.06C237.93 295.586 193.772 282.73 154.548 277.824C115.325 272.918 81.035 275.961 58.8623 260.434C36.6896 244.908 26.6338 210.812 24.1979 174.293C21.7621 137.775 26.9461 98.8345 49.1188 69.7689C71.2915 40.6411 110.453 21.4504 147.303 23.6862C184.216 25.9841 218.818 49.7707 242.927 78.8363Z" stroke-opacity="0.4" stroke-width="4"/>
<path id="layer-04" d="M257.281 66.343C285.42 100.145 301.417 140.159 306.943 185.734C312.542 231.237 307.743 282.302 279.603 300.359C251.464 318.415 200.056 303.464 154.392 297.758C108.729 292.052 68.8094 295.592 42.9964 277.535C17.1834 259.478 5.47666 219.825 2.64087 177.356C-0.194928 134.886 5.84023 89.6001 31.6532 55.7979C57.4662 21.9234 103.057 -0.394742 145.958 2.20543C188.931 4.87783 229.214 32.5408 257.281 66.343Z" stroke-opacity="0.2" stroke-width="4"/>
</g>
</svg>
